<?xml version="1.0" encoding="UTF-8"?>
<svg width="100" height="100" viewBox="0 0 100 100" fill="none" xmlns="http://www.w3.org/2000/svg">
  <!-- QR Code Scanner Icon -->
  <g stroke="#4A5568" stroke-width="2" fill="none">
    <!-- Outer corner frames -->
    <path d="M15 15 L15 5 L25 5" stroke-linecap="round"/>
    <path d="M75 5 L85 5 L85 15" stroke-linecap="round"/>
    <path d="M85 85 L85 95 L75 95" stroke-linecap="round"/>
    <path d="M25 95 L15 95 L15 85" stroke-linecap="round"/>
    
    <!-- QR Code pattern -->
    <rect x="25" y="25" width="15" height="15" fill="#2D3748"/>
    <rect x="60" y="25" width="15" height="15" fill="#2D3748"/>
    <rect x="25" y="60" width="15" height="15" fill="#2D3748"/>
    
    <!-- Inner squares -->
    <rect x="29" y="29" width="7" height="7" fill="white"/>
    <rect x="64" y="29" width="7" height="7" fill="white"/>
    <rect x="29" y="64" width="7" height="7" fill="white"/>
    
    <!-- Small dots pattern -->
    <rect x="50" y="35" width="3" height="3" fill="#68D391"/>
    <rect x="55" y="35" width="3" height="3" fill="#68D391"/>
    <rect x="45" y="40" width="3" height="3" fill="#68D391"/>
    <rect x="50" y="40" width="3" height="3" fill="#68D391"/>
    <rect x="55" y="40" width="3" height="3" fill="#68D391"/>
    <rect x="60" y="40" width="3" height="3" fill="#68D391"/>
    <rect x="45" y="45" width="3" height="3" fill="#68D391"/>
    <rect x="50" y="45" width="3" height="3" fill="#68D391"/>
    <rect x="60" y="45" width="3" height="3" fill="#68D391"/>
    <rect x="40" y="50" width="3" height="3" fill="#68D391"/>
    <rect x="45" y="50" width="3" height="3" fill="#68D391"/>
    <rect x="55" y="50" width="3" height="3" fill="#68D391"/>
    <rect x="40" y="55" width="3" height="3" fill="#68D391"/>
    <rect x="50" y="55" width="3" height="3" fill="#68D391"/>
    <rect x="55" y="55" width="3" height="3" fill="#68D391"/>
    <rect x="60" y="55" width="3" height="3" fill="#68D391"/>
  </g>
</svg>